<svg xmlns="http://www.w3.org/2000/svg" width="512" height="512" viewBox="0 0 512 512">
  <defs>
    <linearGradient id="bg" x1="0%" y1="0%" x2="100%" y2="100%">
      <stop offset="0%" stop-color="#FFF7ED" />
      <stop offset="100%" stop-color="#FFEDD5" />
    </linearGradient>
    <linearGradient id="cargoGrad" x1="0%" y1="0%" x2="100%" y2="100%">
      <stop offset="0%" stop-color="#EA580C" />
      <stop offset="100%" stop-color="#C2410C" />
    </linearGradient>
    <filter id="shadow" x="-10%" y="-10%" width="125%" height="125%">
      <feDropShadow dx="0" dy="16" stdDeviation="16" flood-color="#EA580C" flood-opacity="0.25" />
    </filter>
  </defs>
  <!-- Background Card -->
  <rect x="20" y="20" width="472" height="472" rx="100" fill="url(#bg)" stroke="#FED7AA" stroke-width="8" />

  <rect x="60" y="380" width="392" height="12" rx="6" fill="#78350F" opacity="0.3" />

  <g filter="url(#shadow)">
    <!-- Large Heavy Cargo Box -->
    <rect x="80" y="140" width="240" height="210" rx="14" fill="url(#cargoGrad)" stroke="#9A3412" stroke-width="6" />
    <!-- Container Ridges -->
    <line x1="120" y1="150" x2="120" y2="340" stroke="#9A3412" stroke-width="5" />
    <line x1="160" y1="150" x2="160" y2="340" stroke="#9A3412" stroke-width="5" />
    <line x1="200" y1="150" x2="200" y2="340" stroke="#9A3412" stroke-width="5" />
    <line x1="240" y1="150" x2="240" y2="340" stroke="#9A3412" stroke-width="5" />
    <line x1="280" y1="150" x2="280" y2="340" stroke="#9A3412" stroke-width="5" />

    <!-- Big Rig Truck Cab -->
    <path d="M 320 190 L 376 190 L 420 250 L 420 350 L 320 350 Z" fill="#1E293B" stroke="#0F172A" stroke-width="5" />
    <!-- Windshield -->
    <path d="M 334 204 L 374 204 L 406 250 L 334 250 Z" fill="#67E8F9" stroke="#0F172A" stroke-width="3" />
    <!-- Chrome Grille & Headlight -->
    <rect x="410" y="280" width="16" height="50" rx="4" fill="#CBD5E1" stroke="#475569" stroke-width="2" />
    <circle cx="418" cy="316" r="6" fill="#FDE047" />

    <!-- Exhaust Smoke Stack -->
    <rect x="326" y="130" width="14" height="60" rx="4" fill="#94A3B8" />

    <!-- Triple Wheels -->
    <circle cx="130" cy="360" r="32" fill="#0F172A" stroke="#475569" stroke-width="4" />
    <circle cx="130" cy="360" r="14" fill="#FED7AA" />
    <circle cx="210" cy="360" r="32" fill="#0F172A" stroke="#475569" stroke-width="4" />
    <circle cx="210" cy="360" r="14" fill="#FED7AA" />
    <circle cx="370" cy="360" r="32" fill="#0F172A" stroke="#475569" stroke-width="4" />
    <circle cx="370" cy="360" r="14" fill="#FED7AA" />
  </g>
</svg>